<svg xmlns="http://www.w3.org/2000/svg" xml:space="preserve" viewBox="0 0 40 40"><path d="M37.746 24.147a5.784 5.784 0 0 0-5.78-5.6h-.02a8.914 8.914 0 0 0-16.547-5.135 6.248 6.248 0 0 0-8.555 4.92 5.784 5.784 0 0 0-5.385 5.77v1.097c0 3.558 2.61 6.441 5.827 6.441h24.637c3.218 0 5.828-2.883 5.828-6.44v-1.053z" style="fill:#764ba2;fill-opacity:1"/><path d="m14.05 28.1 1.23-1.24h.177q1.256 0 1.733-.569.478-.578.88-2.571l1.466-7.363q-1.726 0-2.79.93-1.063.921-1.063 2.412v.184l-1.625.788q.21-2.563 1.993-3.761 1.784-1.206 5.37-1.206 2.53 0 3.61.544 1.089.544 1.089 1.81 0 2.554-3.854 3.568 3.234 1.038 3.234 2.848 0 1.616-1.768 2.73-1.767 1.106-4.347 1.106l-1.985-.067zm6.231-6.667h.436q1.55 0 2.563-.913 1.014-.921 1.014-2.329 0-1.976-2.765-1.976h-.21zm-3.116 5.579.871.192q1.282.277 2.698.277 2.881 0 2.881-2.69 0-1.314-.863-2.068-.854-.762-2.337-.762h-.243l-.184.938q-.553 2.747-2.823 4.113" style="fill:#fff"/></svg>