<?xml version="1.0" encoding="UTF-8" standalone="no"?>
<!-- Generator: Adobe Illustrator 24.2.1, SVG Export Plug-In . SVG Version: 6.00 Build 0)  -->

<svg
   version="1.1"
   id="Layer_1"
   x="0px"
   y="0px"
   viewBox="0 0 40 40"
   style="enable-background:new 0 0 40 40;"
   xml:space="preserve"
   sodipodi:docname="brume-thought.svg"
   inkscape:version="1.4.2 (f4327f4, 2025-05-13)"
   xmlns:inkscape="http://www.inkscape.org/namespaces/inkscape"
   xmlns:sodipodi="http://sodipodi.sourceforge.net/DTD/sodipodi-0.dtd"
   xmlns="http://www.w3.org/2000/svg"
   xmlns:svg="http://www.w3.org/2000/svg"><defs
   id="defs1" /><sodipodi:namedview
   id="namedview1"
   pagecolor="#ffffff"
   bordercolor="#666666"
   borderopacity="1.0"
   inkscape:showpageshadow="2"
   inkscape:pageopacity="0.0"
   inkscape:pagecheckerboard="0"
   inkscape:deskcolor="#d1d1d1"
   inkscape:zoom="5.671875"
   inkscape:cx="-15.338843"
   inkscape:cy="49.895316"
   inkscape:window-width="1904"
   inkscape:window-height="2011"
   inkscape:window-x="3261"
   inkscape:window-y="16"
   inkscape:window-maximized="0"
   inkscape:current-layer="Layer_1" />
<style
   type="text/css"
   id="style1">
	.st0{fill:#353535;}
	.st1{enable-background:new    ;}
	.st2{fill:#373737;}
	.st3{fill-rule:evenodd;clip-rule:evenodd;fill:#373737;}
	.st4{fill:#1A1A1A;}
	.st5{fill-rule:evenodd;clip-rule:evenodd;fill:#353535;}
	.st6{fill:#333333;}
</style>
<path
   class="st0"
   d="m 37.745667,24.147232 c -0.09747,-3.109211 -2.647029,-5.601165 -5.779833,-5.601165 -0.0067,0 -0.01407,7.59e-4 -0.01996,7.59e-4 0.01255,-0.186824 0.01996,-0.374339 0.01996,-0.564108 0,-4.922663 -3.991554,-8.9134684 -8.913469,-8.9134684 -3.252412,0 -6.09663,1.7417804 -7.653772,4.3422984 -0.729535,-0.299782 -1.529924,-0.466647 -2.36939,-0.466647 -3.1572303,0 -5.7666049,2.34429 -6.1859935,5.387054 -3.0065364,0.205277 -5.3840967,2.709022 -5.3840967,5.769479 0,0.01558 0,0.03107 0,0.04583 v 1.052152 c 0,3.557418 2.6093763,6.440714 5.8271611,6.440714 H 31.922969 c 3.217786,0 5.82784,-2.883296 5.82784,-6.440714 v -1.052152 h -0.0052 z"
   id="path1"
   style="fill:#764ba2;fill-opacity:1;stroke-width:1.16861" />
<text
   xml:space="preserve"
   style="font-style:normal;font-variant:normal;font-weight:normal;font-stretch:normal;font-size:17.6344px;line-height:1.25;font-family:'Lucida Calligraphy';-inkscape-font-specification:'Lucida Calligraphy';fill:#ffffff;stroke-width:0.44086"
   x="12.020738"
   y="28.403126"
   id="text1"><tspan
     sodipodi:role="line"
     id="tspan1"
     x="12.020738"
     y="28.403126"
     style="font-style:normal;font-variant:normal;font-weight:normal;font-stretch:normal;font-family:'Lucida Calligraphy';-inkscape-font-specification:'Lucida Calligraphy';stroke-width:0.44086">B</tspan></text></svg>
